# xmcd
#
# Track frame offsets: 
#        150
#        17935
#        35548
#        48604
#        64810
#        76521
#        93019
#        103176
#
# Disc length: 1579 seconds
#
# Revision: 0
# Processed by: cddbd v1.5.2PL0 Copyright (c) Steve Scherf et al.
# Submitted via: ExactAudioCopy v0.95b4
#
DISCID=5c062908
DTITLE=Locash Cowboys - Locash Cowboys
DYEAR=2005
DGENRE=Country
TTITLE0=Luv A Nite like That
TTITLE1=Presidentz Daughter
TTITLE2=Unordinary Day
TTITLE3=T. Shirt
TTITLE4=Back N Those Dayz
TTITLE5=Somethin' 2 Look At
TTITLE6=HotLittleCutiePieSexyThing
TTITLE7=Itz A Race Thang
EXTD=
EXTT0=
EXTT1=
EXTT2=
EXTT3=
EXTT4=
EXTT5=
EXTT6=
EXTT7=
PLAYORDER=
